<mxfile host="Electron" modified="2024-01-08T21:13:25.529Z" agent="Mozilla/5.0 (Macintosh; Intel Mac OS X 10_15_7) AppleWebKit/537.36 (KHTML, like Gecko) draw.io/22.1.16 Chrome/120.0.6099.109 Electron/28.1.0 Safari/537.36" etag="ClEE5hU20VjJ972UhxYY" version="22.1.16" type="device" pages="2">
  <diagram name="example1" id="M_l3oaVmqvij0Us-8n8k">
    <mxGraphModel dx="1012" dy="729" grid="1" gridSize="10" guides="1" tooltips="1" connect="1" arrows="1" fold="1" page="1" pageScale="1" pageWidth="827" pageHeight="1169" math="0" shadow="0">
      <root>
        <mxCell id="0" />
        <mxCell id="1" parent="0" />
        <mxCell id="FNDnNTJ_TwFZtQdyabzf-134" value="" style="group" parent="1" vertex="1" connectable="0">
          <mxGeometry y="90" width="1255" height="230" as="geometry" />
        </mxCell>
        <mxCell id="FNDnNTJ_TwFZtQdyabzf-7" value="" style="group;fontSize=18;" parent="FNDnNTJ_TwFZtQdyabzf-134" vertex="1" connectable="0">
          <mxGeometry x="240" y="30" width="80" height="160" as="geometry" />
        </mxCell>
        <mxCell id="FNDnNTJ_TwFZtQdyabzf-2" value="6" style="rounded=0;whiteSpace=wrap;html=1;fontSize=18;" parent="FNDnNTJ_TwFZtQdyabzf-7" vertex="1">
          <mxGeometry width="40" height="160" as="geometry" />
        </mxCell>
        <mxCell id="FNDnNTJ_TwFZtQdyabzf-10" value="" style="group" parent="FNDnNTJ_TwFZtQdyabzf-7" vertex="1" connectable="0">
          <mxGeometry x="40" width="40" height="40" as="geometry" />
        </mxCell>
        <mxCell id="FNDnNTJ_TwFZtQdyabzf-3" value="" style="rounded=0;whiteSpace=wrap;html=1;" parent="FNDnNTJ_TwFZtQdyabzf-10" vertex="1">
          <mxGeometry width="40" height="40" as="geometry" />
        </mxCell>
        <mxCell id="FNDnNTJ_TwFZtQdyabzf-108" style="edgeStyle=none;shape=connector;rounded=0;orthogonalLoop=1;jettySize=auto;html=1;exitX=1;exitY=0.5;exitDx=0;exitDy=0;labelBackgroundColor=default;strokeColor=default;align=center;verticalAlign=middle;fontFamily=Helvetica;fontSize=11;fontColor=default;endArrow=classic;" parent="FNDnNTJ_TwFZtQdyabzf-10" source="FNDnNTJ_TwFZtQdyabzf-8" edge="1">
          <mxGeometry relative="1" as="geometry">
            <mxPoint x="920" y="19.64705882352939" as="targetPoint" />
          </mxGeometry>
        </mxCell>
        <mxCell id="FNDnNTJ_TwFZtQdyabzf-8" value="" style="ellipse;whiteSpace=wrap;html=1;aspect=fixed;fillColor=#000000;" parent="FNDnNTJ_TwFZtQdyabzf-10" vertex="1">
          <mxGeometry x="15" y="15" width="10" height="10" as="geometry" />
        </mxCell>
        <mxCell id="FNDnNTJ_TwFZtQdyabzf-11" value="" style="group" parent="FNDnNTJ_TwFZtQdyabzf-7" vertex="1" connectable="0">
          <mxGeometry x="40" y="40" width="40" height="40" as="geometry" />
        </mxCell>
        <mxCell id="FNDnNTJ_TwFZtQdyabzf-12" value="" style="rounded=0;whiteSpace=wrap;html=1;" parent="FNDnNTJ_TwFZtQdyabzf-11" vertex="1">
          <mxGeometry width="40" height="40" as="geometry" />
        </mxCell>
        <mxCell id="FNDnNTJ_TwFZtQdyabzf-13" value="" style="ellipse;whiteSpace=wrap;html=1;aspect=fixed;fillColor=#000000;" parent="FNDnNTJ_TwFZtQdyabzf-11" vertex="1">
          <mxGeometry x="15" y="15" width="10" height="10" as="geometry" />
        </mxCell>
        <mxCell id="FNDnNTJ_TwFZtQdyabzf-14" value="" style="group" parent="FNDnNTJ_TwFZtQdyabzf-7" vertex="1" connectable="0">
          <mxGeometry x="40" y="80" width="40" height="40" as="geometry" />
        </mxCell>
        <mxCell id="FNDnNTJ_TwFZtQdyabzf-15" value="" style="rounded=0;whiteSpace=wrap;html=1;" parent="FNDnNTJ_TwFZtQdyabzf-14" vertex="1">
          <mxGeometry width="40" height="40" as="geometry" />
        </mxCell>
        <mxCell id="FNDnNTJ_TwFZtQdyabzf-16" value="" style="ellipse;whiteSpace=wrap;html=1;aspect=fixed;fillColor=#000000;" parent="FNDnNTJ_TwFZtQdyabzf-14" vertex="1">
          <mxGeometry x="15" y="15" width="10" height="10" as="geometry" />
        </mxCell>
        <mxCell id="FNDnNTJ_TwFZtQdyabzf-18" value="" style="group" parent="FNDnNTJ_TwFZtQdyabzf-7" vertex="1" connectable="0">
          <mxGeometry x="40" y="120" width="40" height="40" as="geometry" />
        </mxCell>
        <mxCell id="FNDnNTJ_TwFZtQdyabzf-19" value="" style="rounded=0;whiteSpace=wrap;html=1;" parent="FNDnNTJ_TwFZtQdyabzf-18" vertex="1">
          <mxGeometry width="40" height="40" as="geometry" />
        </mxCell>
        <mxCell id="FNDnNTJ_TwFZtQdyabzf-20" value="" style="ellipse;whiteSpace=wrap;html=1;aspect=fixed;fillColor=#000000;" parent="FNDnNTJ_TwFZtQdyabzf-18" vertex="1">
          <mxGeometry x="15" y="15" width="10" height="10" as="geometry" />
        </mxCell>
        <mxCell id="FNDnNTJ_TwFZtQdyabzf-21" value="" style="group" parent="FNDnNTJ_TwFZtQdyabzf-134" vertex="1" connectable="0">
          <mxGeometry x="40" y="30" width="40" height="40" as="geometry" />
        </mxCell>
        <mxCell id="FNDnNTJ_TwFZtQdyabzf-22" value="" style="rounded=0;whiteSpace=wrap;html=1;" parent="FNDnNTJ_TwFZtQdyabzf-21" vertex="1">
          <mxGeometry width="40" height="40" as="geometry" />
        </mxCell>
        <mxCell id="FNDnNTJ_TwFZtQdyabzf-23" value="" style="ellipse;whiteSpace=wrap;html=1;aspect=fixed;fillColor=#000000;" parent="FNDnNTJ_TwFZtQdyabzf-21" vertex="1">
          <mxGeometry x="15" y="15" width="10" height="10" as="geometry" />
        </mxCell>
        <mxCell id="FNDnNTJ_TwFZtQdyabzf-24" value="" style="group" parent="FNDnNTJ_TwFZtQdyabzf-134" vertex="1" connectable="0">
          <mxGeometry x="40" y="70" width="40" height="40" as="geometry" />
        </mxCell>
        <mxCell id="FNDnNTJ_TwFZtQdyabzf-25" value="" style="rounded=0;whiteSpace=wrap;html=1;" parent="FNDnNTJ_TwFZtQdyabzf-24" vertex="1">
          <mxGeometry width="40" height="40" as="geometry" />
        </mxCell>
        <mxCell id="FNDnNTJ_TwFZtQdyabzf-26" value="" style="ellipse;whiteSpace=wrap;html=1;aspect=fixed;fillColor=#000000;" parent="FNDnNTJ_TwFZtQdyabzf-24" vertex="1">
          <mxGeometry x="15" y="15" width="10" height="10" as="geometry" />
        </mxCell>
        <mxCell id="FNDnNTJ_TwFZtQdyabzf-27" value="" style="group" parent="FNDnNTJ_TwFZtQdyabzf-134" vertex="1" connectable="0">
          <mxGeometry x="40" y="110" width="40" height="40" as="geometry" />
        </mxCell>
        <mxCell id="FNDnNTJ_TwFZtQdyabzf-28" value="" style="rounded=0;whiteSpace=wrap;html=1;" parent="FNDnNTJ_TwFZtQdyabzf-27" vertex="1">
          <mxGeometry width="40" height="40" as="geometry" />
        </mxCell>
        <mxCell id="FNDnNTJ_TwFZtQdyabzf-29" value="" style="ellipse;whiteSpace=wrap;html=1;aspect=fixed;fillColor=#000000;" parent="FNDnNTJ_TwFZtQdyabzf-27" vertex="1">
          <mxGeometry x="15" y="15" width="10" height="10" as="geometry" />
        </mxCell>
        <mxCell id="FNDnNTJ_TwFZtQdyabzf-30" value="" style="group" parent="FNDnNTJ_TwFZtQdyabzf-134" vertex="1" connectable="0">
          <mxGeometry x="40" y="150" width="40" height="40" as="geometry" />
        </mxCell>
        <mxCell id="FNDnNTJ_TwFZtQdyabzf-31" value="" style="rounded=0;whiteSpace=wrap;html=1;" parent="FNDnNTJ_TwFZtQdyabzf-30" vertex="1">
          <mxGeometry width="40" height="40" as="geometry" />
        </mxCell>
        <mxCell id="FNDnNTJ_TwFZtQdyabzf-32" value="" style="ellipse;whiteSpace=wrap;html=1;aspect=fixed;fillColor=#000000;" parent="FNDnNTJ_TwFZtQdyabzf-30" vertex="1">
          <mxGeometry x="15" y="15" width="10" height="10" as="geometry" />
        </mxCell>
        <mxCell id="FNDnNTJ_TwFZtQdyabzf-33" value="" style="group" parent="FNDnNTJ_TwFZtQdyabzf-134" vertex="1" connectable="0">
          <mxGeometry x="160" y="150" width="40" height="40" as="geometry" />
        </mxCell>
        <mxCell id="FNDnNTJ_TwFZtQdyabzf-34" value="" style="rounded=0;whiteSpace=wrap;html=1;" parent="FNDnNTJ_TwFZtQdyabzf-33" vertex="1">
          <mxGeometry width="40" height="40" as="geometry" />
        </mxCell>
        <mxCell id="FNDnNTJ_TwFZtQdyabzf-35" value="" style="ellipse;whiteSpace=wrap;html=1;aspect=fixed;fillColor=#000000;" parent="FNDnNTJ_TwFZtQdyabzf-33" vertex="1">
          <mxGeometry x="15" y="15" width="10" height="10" as="geometry" />
        </mxCell>
        <mxCell id="FNDnNTJ_TwFZtQdyabzf-36" value="3" style="rounded=0;whiteSpace=wrap;html=1;fontSize=18;" parent="FNDnNTJ_TwFZtQdyabzf-134" vertex="1">
          <mxGeometry x="120" y="150" width="40" height="40" as="geometry" />
        </mxCell>
        <mxCell id="FNDnNTJ_TwFZtQdyabzf-37" style="edgeStyle=orthogonalEdgeStyle;rounded=0;orthogonalLoop=1;jettySize=auto;html=1;entryX=0;entryY=0.5;entryDx=0;entryDy=0;" parent="FNDnNTJ_TwFZtQdyabzf-134" source="FNDnNTJ_TwFZtQdyabzf-32" target="FNDnNTJ_TwFZtQdyabzf-36" edge="1">
          <mxGeometry relative="1" as="geometry" />
        </mxCell>
        <mxCell id="FNDnNTJ_TwFZtQdyabzf-38" style="rounded=0;orthogonalLoop=1;jettySize=auto;html=1;" parent="FNDnNTJ_TwFZtQdyabzf-134" source="FNDnNTJ_TwFZtQdyabzf-35" edge="1">
          <mxGeometry relative="1" as="geometry">
            <mxPoint x="240" y="170" as="targetPoint" />
          </mxGeometry>
        </mxCell>
        <mxCell id="FNDnNTJ_TwFZtQdyabzf-39" style="rounded=0;orthogonalLoop=1;jettySize=auto;html=1;exitX=1;exitY=0.5;exitDx=0;exitDy=0;" parent="FNDnNTJ_TwFZtQdyabzf-134" source="FNDnNTJ_TwFZtQdyabzf-29" edge="1">
          <mxGeometry relative="1" as="geometry">
            <mxPoint x="240" y="130" as="targetPoint" />
          </mxGeometry>
        </mxCell>
        <mxCell id="FNDnNTJ_TwFZtQdyabzf-40" style="rounded=0;orthogonalLoop=1;jettySize=auto;html=1;exitX=1;exitY=0.5;exitDx=0;exitDy=0;" parent="FNDnNTJ_TwFZtQdyabzf-134" source="FNDnNTJ_TwFZtQdyabzf-26" edge="1">
          <mxGeometry relative="1" as="geometry">
            <mxPoint x="240" y="90" as="targetPoint" />
          </mxGeometry>
        </mxCell>
        <mxCell id="FNDnNTJ_TwFZtQdyabzf-41" style="rounded=0;orthogonalLoop=1;jettySize=auto;html=1;exitX=1;exitY=0.5;exitDx=0;exitDy=0;" parent="FNDnNTJ_TwFZtQdyabzf-134" source="FNDnNTJ_TwFZtQdyabzf-23" edge="1">
          <mxGeometry relative="1" as="geometry">
            <mxPoint x="240" y="50" as="targetPoint" />
          </mxGeometry>
        </mxCell>
        <mxCell id="FNDnNTJ_TwFZtQdyabzf-42" value="head" style="text;html=1;strokeColor=none;fillColor=none;align=center;verticalAlign=middle;whiteSpace=wrap;rounded=0;fontSize=18;fontFamily=Helvetica;fontColor=default;" parent="FNDnNTJ_TwFZtQdyabzf-134" vertex="1">
          <mxGeometry x="35" width="50" height="30" as="geometry" />
        </mxCell>
        <mxCell id="FNDnNTJ_TwFZtQdyabzf-45" value="(pos=-1)" style="text;fontSize=18;fontFamily=Helvetica;fontColor=default;align=center;" parent="FNDnNTJ_TwFZtQdyabzf-134" vertex="1">
          <mxGeometry x="27.5" y="200" width="65" height="30" as="geometry" />
        </mxCell>
        <mxCell id="FNDnNTJ_TwFZtQdyabzf-46" value="pos=0" style="text;fontSize=18;fontFamily=Helvetica;fontColor=default;align=center;" parent="FNDnNTJ_TwFZtQdyabzf-134" vertex="1">
          <mxGeometry x="130" y="200" width="65" height="30" as="geometry" />
        </mxCell>
        <mxCell id="FNDnNTJ_TwFZtQdyabzf-47" value="pos=1" style="text;fontSize=18;fontFamily=Helvetica;fontColor=default;align=center;" parent="FNDnNTJ_TwFZtQdyabzf-134" vertex="1">
          <mxGeometry x="247.5" y="200" width="65" height="30" as="geometry" />
        </mxCell>
        <mxCell id="FNDnNTJ_TwFZtQdyabzf-48" value="2" style="text;fontSize=18;fontFamily=Helvetica;fontColor=default;align=center;" parent="FNDnNTJ_TwFZtQdyabzf-134" vertex="1">
          <mxGeometry x="80" y="20" width="40" height="30" as="geometry" />
        </mxCell>
        <mxCell id="FNDnNTJ_TwFZtQdyabzf-49" value="2" style="text;fontSize=18;fontFamily=Helvetica;fontColor=default;align=center;" parent="FNDnNTJ_TwFZtQdyabzf-134" vertex="1">
          <mxGeometry x="80" y="60" width="40" height="30" as="geometry" />
        </mxCell>
        <mxCell id="FNDnNTJ_TwFZtQdyabzf-50" value="2" style="text;fontSize=18;fontFamily=Helvetica;fontColor=default;align=center;" parent="FNDnNTJ_TwFZtQdyabzf-134" vertex="1">
          <mxGeometry x="80" y="100" width="40" height="30" as="geometry" />
        </mxCell>
        <mxCell id="FNDnNTJ_TwFZtQdyabzf-51" value="1" style="text;fontSize=18;fontFamily=Helvetica;fontColor=default;align=center;" parent="FNDnNTJ_TwFZtQdyabzf-134" vertex="1">
          <mxGeometry x="80" y="140" width="40" height="30" as="geometry" />
        </mxCell>
        <mxCell id="FNDnNTJ_TwFZtQdyabzf-52" value="1" style="text;fontSize=18;fontFamily=Helvetica;fontColor=default;align=center;" parent="FNDnNTJ_TwFZtQdyabzf-134" vertex="1">
          <mxGeometry x="200" y="140" width="40" height="30" as="geometry" />
        </mxCell>
        <mxCell id="FNDnNTJ_TwFZtQdyabzf-53" value="" style="group" parent="FNDnNTJ_TwFZtQdyabzf-134" vertex="1" connectable="0">
          <mxGeometry x="400" y="150" width="40" height="40" as="geometry" />
        </mxCell>
        <mxCell id="FNDnNTJ_TwFZtQdyabzf-54" value="" style="rounded=0;whiteSpace=wrap;html=1;" parent="FNDnNTJ_TwFZtQdyabzf-53" vertex="1">
          <mxGeometry width="40" height="40" as="geometry" />
        </mxCell>
        <mxCell id="FNDnNTJ_TwFZtQdyabzf-55" value="" style="ellipse;whiteSpace=wrap;html=1;aspect=fixed;fillColor=#000000;" parent="FNDnNTJ_TwFZtQdyabzf-53" vertex="1">
          <mxGeometry x="15" y="15" width="10" height="10" as="geometry" />
        </mxCell>
        <mxCell id="FNDnNTJ_TwFZtQdyabzf-56" value="9" style="rounded=0;whiteSpace=wrap;html=1;fontSize=18;" parent="FNDnNTJ_TwFZtQdyabzf-134" vertex="1">
          <mxGeometry x="360" y="110" width="40" height="80" as="geometry" />
        </mxCell>
        <mxCell id="FNDnNTJ_TwFZtQdyabzf-57" style="edgeStyle=none;shape=connector;rounded=0;orthogonalLoop=1;jettySize=auto;html=1;exitX=1;exitY=0.5;exitDx=0;exitDy=0;entryX=0;entryY=0.75;entryDx=0;entryDy=0;labelBackgroundColor=default;strokeColor=default;align=center;verticalAlign=middle;fontFamily=Helvetica;fontSize=11;fontColor=default;endArrow=classic;" parent="FNDnNTJ_TwFZtQdyabzf-134" source="FNDnNTJ_TwFZtQdyabzf-20" target="FNDnNTJ_TwFZtQdyabzf-56" edge="1">
          <mxGeometry relative="1" as="geometry" />
        </mxCell>
        <mxCell id="FNDnNTJ_TwFZtQdyabzf-58" value="1" style="text;fontSize=18;fontFamily=Helvetica;fontColor=default;align=center;" parent="FNDnNTJ_TwFZtQdyabzf-134" vertex="1">
          <mxGeometry x="320" y="140" width="30" height="30" as="geometry" />
        </mxCell>
        <mxCell id="FNDnNTJ_TwFZtQdyabzf-59" value="" style="group" parent="FNDnNTJ_TwFZtQdyabzf-134" vertex="1" connectable="0">
          <mxGeometry x="400" y="110" width="40" height="40" as="geometry" />
        </mxCell>
        <mxCell id="FNDnNTJ_TwFZtQdyabzf-60" value="" style="rounded=0;whiteSpace=wrap;html=1;" parent="FNDnNTJ_TwFZtQdyabzf-59" vertex="1">
          <mxGeometry width="40" height="40" as="geometry" />
        </mxCell>
        <mxCell id="FNDnNTJ_TwFZtQdyabzf-61" value="" style="ellipse;whiteSpace=wrap;html=1;aspect=fixed;fillColor=#000000;" parent="FNDnNTJ_TwFZtQdyabzf-59" vertex="1">
          <mxGeometry x="15" y="15" width="10" height="10" as="geometry" />
        </mxCell>
        <mxCell id="FNDnNTJ_TwFZtQdyabzf-62" value="" style="group" parent="FNDnNTJ_TwFZtQdyabzf-134" vertex="1" connectable="0">
          <mxGeometry x="520" y="150" width="40" height="40" as="geometry" />
        </mxCell>
        <mxCell id="FNDnNTJ_TwFZtQdyabzf-63" value="" style="rounded=0;whiteSpace=wrap;html=1;" parent="FNDnNTJ_TwFZtQdyabzf-62" vertex="1">
          <mxGeometry width="40" height="40" as="geometry" />
        </mxCell>
        <mxCell id="FNDnNTJ_TwFZtQdyabzf-64" value="" style="ellipse;whiteSpace=wrap;html=1;aspect=fixed;fillColor=#000000;" parent="FNDnNTJ_TwFZtQdyabzf-62" vertex="1">
          <mxGeometry x="15" y="15" width="10" height="10" as="geometry" />
        </mxCell>
        <mxCell id="FNDnNTJ_TwFZtQdyabzf-65" value="12" style="rounded=0;whiteSpace=wrap;html=1;fontSize=18;" parent="FNDnNTJ_TwFZtQdyabzf-134" vertex="1">
          <mxGeometry x="480" y="150" width="40" height="40" as="geometry" />
        </mxCell>
        <mxCell id="FNDnNTJ_TwFZtQdyabzf-66" style="edgeStyle=none;shape=connector;rounded=0;orthogonalLoop=1;jettySize=auto;html=1;entryX=-0.098;entryY=0.492;entryDx=0;entryDy=0;entryPerimeter=0;labelBackgroundColor=default;strokeColor=default;align=center;verticalAlign=middle;fontFamily=Helvetica;fontSize=11;fontColor=default;endArrow=classic;" parent="FNDnNTJ_TwFZtQdyabzf-134" source="FNDnNTJ_TwFZtQdyabzf-55" target="FNDnNTJ_TwFZtQdyabzf-65" edge="1">
          <mxGeometry relative="1" as="geometry" />
        </mxCell>
        <mxCell id="FNDnNTJ_TwFZtQdyabzf-67" value="" style="group" parent="FNDnNTJ_TwFZtQdyabzf-134" vertex="1" connectable="0">
          <mxGeometry x="640" y="150" width="40" height="40" as="geometry" />
        </mxCell>
        <mxCell id="FNDnNTJ_TwFZtQdyabzf-68" value="" style="rounded=0;whiteSpace=wrap;html=1;" parent="FNDnNTJ_TwFZtQdyabzf-67" vertex="1">
          <mxGeometry width="40" height="40" as="geometry" />
        </mxCell>
        <mxCell id="FNDnNTJ_TwFZtQdyabzf-69" value="" style="ellipse;whiteSpace=wrap;html=1;aspect=fixed;fillColor=#000000;" parent="FNDnNTJ_TwFZtQdyabzf-67" vertex="1">
          <mxGeometry x="15" y="15" width="10" height="10" as="geometry" />
        </mxCell>
        <mxCell id="FNDnNTJ_TwFZtQdyabzf-70" value="17" style="rounded=0;whiteSpace=wrap;html=1;fontSize=18;" parent="FNDnNTJ_TwFZtQdyabzf-134" vertex="1">
          <mxGeometry x="600" y="110" width="40" height="80" as="geometry" />
        </mxCell>
        <mxCell id="FNDnNTJ_TwFZtQdyabzf-71" value="" style="group" parent="FNDnNTJ_TwFZtQdyabzf-134" vertex="1" connectable="0">
          <mxGeometry x="640" y="110" width="40" height="40" as="geometry" />
        </mxCell>
        <mxCell id="FNDnNTJ_TwFZtQdyabzf-72" value="" style="rounded=0;whiteSpace=wrap;html=1;" parent="FNDnNTJ_TwFZtQdyabzf-71" vertex="1">
          <mxGeometry width="40" height="40" as="geometry" />
        </mxCell>
        <mxCell id="FNDnNTJ_TwFZtQdyabzf-73" value="" style="ellipse;whiteSpace=wrap;html=1;aspect=fixed;fillColor=#000000;" parent="FNDnNTJ_TwFZtQdyabzf-71" vertex="1">
          <mxGeometry x="15" y="15" width="10" height="10" as="geometry" />
        </mxCell>
        <mxCell id="FNDnNTJ_TwFZtQdyabzf-74" style="edgeStyle=none;shape=connector;rounded=0;orthogonalLoop=1;jettySize=auto;html=1;exitX=1;exitY=0.5;exitDx=0;exitDy=0;entryX=-0.074;entryY=0.746;entryDx=0;entryDy=0;entryPerimeter=0;labelBackgroundColor=default;strokeColor=default;align=center;verticalAlign=middle;fontFamily=Helvetica;fontSize=11;fontColor=default;endArrow=classic;" parent="FNDnNTJ_TwFZtQdyabzf-134" source="FNDnNTJ_TwFZtQdyabzf-64" target="FNDnNTJ_TwFZtQdyabzf-70" edge="1">
          <mxGeometry relative="1" as="geometry" />
        </mxCell>
        <mxCell id="FNDnNTJ_TwFZtQdyabzf-75" value="" style="group" parent="FNDnNTJ_TwFZtQdyabzf-134" vertex="1" connectable="0">
          <mxGeometry x="760" y="150" width="40" height="40" as="geometry" />
        </mxCell>
        <mxCell id="FNDnNTJ_TwFZtQdyabzf-76" value="" style="rounded=0;whiteSpace=wrap;html=1;" parent="FNDnNTJ_TwFZtQdyabzf-75" vertex="1">
          <mxGeometry width="40" height="40" as="geometry" />
        </mxCell>
        <mxCell id="FNDnNTJ_TwFZtQdyabzf-77" value="" style="ellipse;whiteSpace=wrap;html=1;aspect=fixed;fillColor=#000000;" parent="FNDnNTJ_TwFZtQdyabzf-75" vertex="1">
          <mxGeometry x="15" y="15" width="10" height="10" as="geometry" />
        </mxCell>
        <mxCell id="FNDnNTJ_TwFZtQdyabzf-78" value="19" style="rounded=0;whiteSpace=wrap;html=1;fontSize=18;" parent="FNDnNTJ_TwFZtQdyabzf-134" vertex="1">
          <mxGeometry x="720" y="150" width="40" height="40" as="geometry" />
        </mxCell>
        <mxCell id="FNDnNTJ_TwFZtQdyabzf-79" style="edgeStyle=none;shape=connector;rounded=0;orthogonalLoop=1;jettySize=auto;html=1;exitX=1;exitY=0.5;exitDx=0;exitDy=0;entryX=0;entryY=0.5;entryDx=0;entryDy=0;labelBackgroundColor=default;strokeColor=default;align=center;verticalAlign=middle;fontFamily=Helvetica;fontSize=11;fontColor=default;endArrow=classic;" parent="FNDnNTJ_TwFZtQdyabzf-134" source="FNDnNTJ_TwFZtQdyabzf-69" target="FNDnNTJ_TwFZtQdyabzf-78" edge="1">
          <mxGeometry relative="1" as="geometry" />
        </mxCell>
        <mxCell id="FNDnNTJ_TwFZtQdyabzf-80" value="" style="group" parent="FNDnNTJ_TwFZtQdyabzf-134" vertex="1" connectable="0">
          <mxGeometry x="880" y="150" width="40" height="40" as="geometry" />
        </mxCell>
        <mxCell id="FNDnNTJ_TwFZtQdyabzf-81" value="" style="rounded=0;whiteSpace=wrap;html=1;" parent="FNDnNTJ_TwFZtQdyabzf-80" vertex="1">
          <mxGeometry width="40" height="40" as="geometry" />
        </mxCell>
        <mxCell id="FNDnNTJ_TwFZtQdyabzf-82" value="" style="ellipse;whiteSpace=wrap;html=1;aspect=fixed;fillColor=#000000;" parent="FNDnNTJ_TwFZtQdyabzf-80" vertex="1">
          <mxGeometry x="15" y="15" width="10" height="10" as="geometry" />
        </mxCell>
        <mxCell id="FNDnNTJ_TwFZtQdyabzf-83" value="21" style="rounded=0;whiteSpace=wrap;html=1;fontSize=18;" parent="FNDnNTJ_TwFZtQdyabzf-134" vertex="1">
          <mxGeometry x="840" y="150" width="40" height="40" as="geometry" />
        </mxCell>
        <mxCell id="FNDnNTJ_TwFZtQdyabzf-84" style="edgeStyle=none;shape=connector;rounded=0;orthogonalLoop=1;jettySize=auto;html=1;exitX=1;exitY=0.5;exitDx=0;exitDy=0;entryX=0;entryY=0.5;entryDx=0;entryDy=0;labelBackgroundColor=default;strokeColor=default;align=center;verticalAlign=middle;fontFamily=Helvetica;fontSize=11;fontColor=default;endArrow=classic;" parent="FNDnNTJ_TwFZtQdyabzf-134" source="FNDnNTJ_TwFZtQdyabzf-77" target="FNDnNTJ_TwFZtQdyabzf-83" edge="1">
          <mxGeometry relative="1" as="geometry" />
        </mxCell>
        <mxCell id="FNDnNTJ_TwFZtQdyabzf-85" value="" style="group" parent="FNDnNTJ_TwFZtQdyabzf-134" vertex="1" connectable="0">
          <mxGeometry x="1000" y="150" width="40" height="40" as="geometry" />
        </mxCell>
        <mxCell id="FNDnNTJ_TwFZtQdyabzf-86" value="" style="rounded=0;whiteSpace=wrap;html=1;" parent="FNDnNTJ_TwFZtQdyabzf-85" vertex="1">
          <mxGeometry width="40" height="40" as="geometry" />
        </mxCell>
        <mxCell id="FNDnNTJ_TwFZtQdyabzf-87" value="" style="ellipse;whiteSpace=wrap;html=1;aspect=fixed;fillColor=#000000;" parent="FNDnNTJ_TwFZtQdyabzf-85" vertex="1">
          <mxGeometry x="15" y="15" width="10" height="10" as="geometry" />
        </mxCell>
        <mxCell id="FNDnNTJ_TwFZtQdyabzf-88" value="25" style="rounded=0;whiteSpace=wrap;html=1;fontSize=18;" parent="FNDnNTJ_TwFZtQdyabzf-134" vertex="1">
          <mxGeometry x="960" y="70" width="40" height="120" as="geometry" />
        </mxCell>
        <mxCell id="FNDnNTJ_TwFZtQdyabzf-89" value="" style="group" parent="FNDnNTJ_TwFZtQdyabzf-134" vertex="1" connectable="0">
          <mxGeometry x="1000" y="110" width="40" height="40" as="geometry" />
        </mxCell>
        <mxCell id="FNDnNTJ_TwFZtQdyabzf-90" value="" style="rounded=0;whiteSpace=wrap;html=1;" parent="FNDnNTJ_TwFZtQdyabzf-89" vertex="1">
          <mxGeometry width="40" height="40" as="geometry" />
        </mxCell>
        <mxCell id="FNDnNTJ_TwFZtQdyabzf-110" style="edgeStyle=none;shape=connector;rounded=0;orthogonalLoop=1;jettySize=auto;html=1;exitX=1;exitY=0.5;exitDx=0;exitDy=0;labelBackgroundColor=default;strokeColor=default;align=center;verticalAlign=middle;fontFamily=Helvetica;fontSize=11;fontColor=default;endArrow=classic;" parent="FNDnNTJ_TwFZtQdyabzf-89" source="FNDnNTJ_TwFZtQdyabzf-91" edge="1">
          <mxGeometry relative="1" as="geometry">
            <mxPoint x="200" y="20.14285714285711" as="targetPoint" />
          </mxGeometry>
        </mxCell>
        <mxCell id="FNDnNTJ_TwFZtQdyabzf-91" value="" style="ellipse;whiteSpace=wrap;html=1;aspect=fixed;fillColor=#000000;" parent="FNDnNTJ_TwFZtQdyabzf-89" vertex="1">
          <mxGeometry x="15" y="15" width="10" height="10" as="geometry" />
        </mxCell>
        <mxCell id="FNDnNTJ_TwFZtQdyabzf-93" value="" style="group" parent="FNDnNTJ_TwFZtQdyabzf-134" vertex="1" connectable="0">
          <mxGeometry x="1000" y="70" width="40" height="40" as="geometry" />
        </mxCell>
        <mxCell id="FNDnNTJ_TwFZtQdyabzf-94" value="" style="rounded=0;whiteSpace=wrap;html=1;" parent="FNDnNTJ_TwFZtQdyabzf-93" vertex="1">
          <mxGeometry width="40" height="40" as="geometry" />
        </mxCell>
        <mxCell id="FNDnNTJ_TwFZtQdyabzf-95" value="" style="ellipse;whiteSpace=wrap;html=1;aspect=fixed;fillColor=#000000;" parent="FNDnNTJ_TwFZtQdyabzf-93" vertex="1">
          <mxGeometry x="15" y="15" width="10" height="10" as="geometry" />
        </mxCell>
        <mxCell id="FNDnNTJ_TwFZtQdyabzf-96" style="edgeStyle=none;shape=connector;rounded=0;orthogonalLoop=1;jettySize=auto;html=1;labelBackgroundColor=default;strokeColor=default;align=center;verticalAlign=middle;fontFamily=Helvetica;fontSize=11;fontColor=default;endArrow=classic;entryX=0;entryY=0.833;entryDx=0;entryDy=0;entryPerimeter=0;" parent="FNDnNTJ_TwFZtQdyabzf-134" source="FNDnNTJ_TwFZtQdyabzf-82" target="FNDnNTJ_TwFZtQdyabzf-88" edge="1">
          <mxGeometry relative="1" as="geometry">
            <mxPoint x="960" y="167" as="targetPoint" />
          </mxGeometry>
        </mxCell>
        <mxCell id="FNDnNTJ_TwFZtQdyabzf-97" value="" style="group" parent="FNDnNTJ_TwFZtQdyabzf-134" vertex="1" connectable="0">
          <mxGeometry x="1120" y="150" width="40" height="40" as="geometry" />
        </mxCell>
        <mxCell id="FNDnNTJ_TwFZtQdyabzf-98" value="" style="rounded=0;whiteSpace=wrap;html=1;" parent="FNDnNTJ_TwFZtQdyabzf-97" vertex="1">
          <mxGeometry width="40" height="40" as="geometry" />
        </mxCell>
        <mxCell id="FNDnNTJ_TwFZtQdyabzf-103" style="edgeStyle=none;shape=connector;rounded=0;orthogonalLoop=1;jettySize=auto;html=1;exitX=1;exitY=0.5;exitDx=0;exitDy=0;labelBackgroundColor=default;strokeColor=default;align=center;verticalAlign=middle;fontFamily=Helvetica;fontSize=11;fontColor=default;endArrow=classic;" parent="FNDnNTJ_TwFZtQdyabzf-97" source="FNDnNTJ_TwFZtQdyabzf-99" edge="1">
          <mxGeometry relative="1" as="geometry">
            <mxPoint x="80" y="20.14285714285711" as="targetPoint" />
          </mxGeometry>
        </mxCell>
        <mxCell id="FNDnNTJ_TwFZtQdyabzf-99" value="" style="ellipse;whiteSpace=wrap;html=1;aspect=fixed;fillColor=#000000;" parent="FNDnNTJ_TwFZtQdyabzf-97" vertex="1">
          <mxGeometry x="15" y="15" width="10" height="10" as="geometry" />
        </mxCell>
        <mxCell id="FNDnNTJ_TwFZtQdyabzf-100" value="21" style="rounded=0;whiteSpace=wrap;html=1;fontSize=18;" parent="FNDnNTJ_TwFZtQdyabzf-134" vertex="1">
          <mxGeometry x="1080" y="150" width="40" height="40" as="geometry" />
        </mxCell>
        <mxCell id="FNDnNTJ_TwFZtQdyabzf-101" style="edgeStyle=none;shape=connector;rounded=0;orthogonalLoop=1;jettySize=auto;html=1;exitX=1;exitY=0.5;exitDx=0;exitDy=0;entryX=0;entryY=0.5;entryDx=0;entryDy=0;labelBackgroundColor=default;strokeColor=default;align=center;verticalAlign=middle;fontFamily=Helvetica;fontSize=11;fontColor=default;endArrow=classic;" parent="FNDnNTJ_TwFZtQdyabzf-134" source="FNDnNTJ_TwFZtQdyabzf-87" target="FNDnNTJ_TwFZtQdyabzf-100" edge="1">
          <mxGeometry relative="1" as="geometry" />
        </mxCell>
        <mxCell id="FNDnNTJ_TwFZtQdyabzf-102" value="nil" style="rounded=0;whiteSpace=wrap;html=1;fontSize=18;" parent="FNDnNTJ_TwFZtQdyabzf-134" vertex="1">
          <mxGeometry x="1201" y="30" width="40" height="160" as="geometry" />
        </mxCell>
        <mxCell id="FNDnNTJ_TwFZtQdyabzf-104" style="edgeStyle=none;shape=connector;rounded=0;orthogonalLoop=1;jettySize=auto;html=1;exitX=1;exitY=0.5;exitDx=0;exitDy=0;entryX=0;entryY=0.25;entryDx=0;entryDy=0;labelBackgroundColor=default;strokeColor=default;align=center;verticalAlign=middle;fontFamily=Helvetica;fontSize=11;fontColor=default;endArrow=classic;" parent="FNDnNTJ_TwFZtQdyabzf-134" source="FNDnNTJ_TwFZtQdyabzf-16" target="FNDnNTJ_TwFZtQdyabzf-56" edge="1">
          <mxGeometry relative="1" as="geometry" />
        </mxCell>
        <mxCell id="FNDnNTJ_TwFZtQdyabzf-105" style="edgeStyle=none;shape=connector;rounded=0;orthogonalLoop=1;jettySize=auto;html=1;exitX=1;exitY=0.5;exitDx=0;exitDy=0;entryX=0;entryY=0.25;entryDx=0;entryDy=0;labelBackgroundColor=default;strokeColor=default;align=center;verticalAlign=middle;fontFamily=Helvetica;fontSize=11;fontColor=default;endArrow=classic;" parent="FNDnNTJ_TwFZtQdyabzf-134" source="FNDnNTJ_TwFZtQdyabzf-61" target="FNDnNTJ_TwFZtQdyabzf-70" edge="1">
          <mxGeometry relative="1" as="geometry" />
        </mxCell>
        <mxCell id="FNDnNTJ_TwFZtQdyabzf-106" style="edgeStyle=none;shape=connector;rounded=0;orthogonalLoop=1;jettySize=auto;html=1;exitX=1;exitY=0.5;exitDx=0;exitDy=0;entryX=0;entryY=0.5;entryDx=0;entryDy=0;labelBackgroundColor=default;strokeColor=default;align=center;verticalAlign=middle;fontFamily=Helvetica;fontSize=11;fontColor=default;endArrow=classic;" parent="FNDnNTJ_TwFZtQdyabzf-134" source="FNDnNTJ_TwFZtQdyabzf-73" target="FNDnNTJ_TwFZtQdyabzf-88" edge="1">
          <mxGeometry relative="1" as="geometry" />
        </mxCell>
        <mxCell id="FNDnNTJ_TwFZtQdyabzf-107" style="edgeStyle=none;shape=connector;rounded=0;orthogonalLoop=1;jettySize=auto;html=1;exitX=1;exitY=0.5;exitDx=0;exitDy=0;entryX=-0.007;entryY=0.168;entryDx=0;entryDy=0;entryPerimeter=0;labelBackgroundColor=default;strokeColor=default;align=center;verticalAlign=middle;fontFamily=Helvetica;fontSize=11;fontColor=default;endArrow=classic;" parent="FNDnNTJ_TwFZtQdyabzf-134" source="FNDnNTJ_TwFZtQdyabzf-13" target="FNDnNTJ_TwFZtQdyabzf-88" edge="1">
          <mxGeometry relative="1" as="geometry" />
        </mxCell>
        <mxCell id="FNDnNTJ_TwFZtQdyabzf-109" style="edgeStyle=none;shape=connector;rounded=0;orthogonalLoop=1;jettySize=auto;html=1;exitX=1;exitY=0.5;exitDx=0;exitDy=0;entryX=-0.061;entryY=0.372;entryDx=0;entryDy=0;entryPerimeter=0;labelBackgroundColor=default;strokeColor=default;align=center;verticalAlign=middle;fontFamily=Helvetica;fontSize=11;fontColor=default;endArrow=classic;" parent="FNDnNTJ_TwFZtQdyabzf-134" source="FNDnNTJ_TwFZtQdyabzf-95" target="FNDnNTJ_TwFZtQdyabzf-102" edge="1">
          <mxGeometry relative="1" as="geometry" />
        </mxCell>
        <mxCell id="FNDnNTJ_TwFZtQdyabzf-111" value="1" style="text;fontSize=18;fontFamily=Helvetica;fontColor=default;align=center;" parent="FNDnNTJ_TwFZtQdyabzf-134" vertex="1">
          <mxGeometry x="320" y="100" width="30" height="30" as="geometry" />
        </mxCell>
        <mxCell id="FNDnNTJ_TwFZtQdyabzf-113" value="8" style="text;fontSize=18;fontFamily=Helvetica;fontColor=default;align=center;" parent="FNDnNTJ_TwFZtQdyabzf-134" vertex="1">
          <mxGeometry x="320" y="20" width="30" height="30" as="geometry" />
        </mxCell>
        <mxCell id="FNDnNTJ_TwFZtQdyabzf-114" value="6" style="text;fontSize=18;fontFamily=Helvetica;fontColor=default;align=center;" parent="FNDnNTJ_TwFZtQdyabzf-134" vertex="1">
          <mxGeometry x="320" y="60" width="30" height="30" as="geometry" />
        </mxCell>
        <mxCell id="FNDnNTJ_TwFZtQdyabzf-115" value="1" style="text;fontSize=18;fontFamily=Helvetica;fontColor=default;align=center;" parent="FNDnNTJ_TwFZtQdyabzf-134" vertex="1">
          <mxGeometry x="440" y="140" width="30" height="30" as="geometry" />
        </mxCell>
        <mxCell id="FNDnNTJ_TwFZtQdyabzf-116" value="1" style="text;fontSize=18;fontFamily=Helvetica;fontColor=default;align=center;" parent="FNDnNTJ_TwFZtQdyabzf-134" vertex="1">
          <mxGeometry x="560" y="140" width="30" height="30" as="geometry" />
        </mxCell>
        <mxCell id="FNDnNTJ_TwFZtQdyabzf-117" value="1" style="text;fontSize=18;fontFamily=Helvetica;fontColor=default;align=center;" parent="FNDnNTJ_TwFZtQdyabzf-134" vertex="1">
          <mxGeometry x="680" y="140" width="30" height="30" as="geometry" />
        </mxCell>
        <mxCell id="FNDnNTJ_TwFZtQdyabzf-118" value="1" style="text;fontSize=18;fontFamily=Helvetica;fontColor=default;align=center;" parent="FNDnNTJ_TwFZtQdyabzf-134" vertex="1">
          <mxGeometry x="800" y="140" width="30" height="30" as="geometry" />
        </mxCell>
        <mxCell id="FNDnNTJ_TwFZtQdyabzf-119" value="1" style="text;fontSize=18;fontFamily=Helvetica;fontColor=default;align=center;" parent="FNDnNTJ_TwFZtQdyabzf-134" vertex="1">
          <mxGeometry x="920" y="140" width="30" height="30" as="geometry" />
        </mxCell>
        <mxCell id="FNDnNTJ_TwFZtQdyabzf-120" value="1" style="text;fontSize=18;fontFamily=Helvetica;fontColor=default;align=center;" parent="FNDnNTJ_TwFZtQdyabzf-134" vertex="1">
          <mxGeometry x="1040" y="140" width="30" height="30" as="geometry" />
        </mxCell>
        <mxCell id="FNDnNTJ_TwFZtQdyabzf-121" value="1" style="text;fontSize=18;fontFamily=Helvetica;fontColor=default;align=center;" parent="FNDnNTJ_TwFZtQdyabzf-134" vertex="1">
          <mxGeometry x="1160" y="140" width="30" height="30" as="geometry" />
        </mxCell>
        <mxCell id="FNDnNTJ_TwFZtQdyabzf-122" value="2" style="text;fontSize=18;fontFamily=Helvetica;fontColor=default;align=center;" parent="FNDnNTJ_TwFZtQdyabzf-134" vertex="1">
          <mxGeometry x="1040" y="100" width="30" height="30" as="geometry" />
        </mxCell>
        <mxCell id="FNDnNTJ_TwFZtQdyabzf-123" value="2" style="text;fontSize=18;fontFamily=Helvetica;fontColor=default;align=center;" parent="FNDnNTJ_TwFZtQdyabzf-134" vertex="1">
          <mxGeometry x="1040" y="60" width="30" height="30" as="geometry" />
        </mxCell>
        <mxCell id="FNDnNTJ_TwFZtQdyabzf-124" value="3" style="text;fontSize=18;fontFamily=Helvetica;fontColor=default;align=center;" parent="FNDnNTJ_TwFZtQdyabzf-134" vertex="1">
          <mxGeometry x="680" y="100" width="30" height="30" as="geometry" />
        </mxCell>
        <mxCell id="FNDnNTJ_TwFZtQdyabzf-125" value="pos=2" style="text;fontSize=18;fontFamily=Helvetica;fontColor=default;align=center;" parent="FNDnNTJ_TwFZtQdyabzf-134" vertex="1">
          <mxGeometry x="370" y="200" width="65" height="30" as="geometry" />
        </mxCell>
        <mxCell id="FNDnNTJ_TwFZtQdyabzf-126" value="pos=3" style="text;fontSize=18;fontFamily=Helvetica;fontColor=default;align=center;" parent="FNDnNTJ_TwFZtQdyabzf-134" vertex="1">
          <mxGeometry x="490" y="200" width="65" height="30" as="geometry" />
        </mxCell>
        <mxCell id="FNDnNTJ_TwFZtQdyabzf-127" value="pos=4" style="text;fontSize=18;fontFamily=Helvetica;fontColor=default;align=center;" parent="FNDnNTJ_TwFZtQdyabzf-134" vertex="1">
          <mxGeometry x="610" y="200" width="65" height="30" as="geometry" />
        </mxCell>
        <mxCell id="FNDnNTJ_TwFZtQdyabzf-128" value="pos=5" style="text;fontSize=18;fontFamily=Helvetica;fontColor=default;align=center;" parent="FNDnNTJ_TwFZtQdyabzf-134" vertex="1">
          <mxGeometry x="730" y="200" width="65" height="30" as="geometry" />
        </mxCell>
        <mxCell id="FNDnNTJ_TwFZtQdyabzf-129" value="pos=6" style="text;fontSize=18;fontFamily=Helvetica;fontColor=default;align=center;" parent="FNDnNTJ_TwFZtQdyabzf-134" vertex="1">
          <mxGeometry x="850" y="200" width="65" height="30" as="geometry" />
        </mxCell>
        <mxCell id="FNDnNTJ_TwFZtQdyabzf-130" value="pos=7" style="text;fontSize=18;fontFamily=Helvetica;fontColor=default;align=center;" parent="FNDnNTJ_TwFZtQdyabzf-134" vertex="1">
          <mxGeometry x="970" y="200" width="65" height="30" as="geometry" />
        </mxCell>
        <mxCell id="FNDnNTJ_TwFZtQdyabzf-131" value="pos=8" style="text;fontSize=18;fontFamily=Helvetica;fontColor=default;align=center;" parent="FNDnNTJ_TwFZtQdyabzf-134" vertex="1">
          <mxGeometry x="1090" y="200" width="65" height="30" as="geometry" />
        </mxCell>
        <mxCell id="FNDnNTJ_TwFZtQdyabzf-132" value="(pos=9)" style="text;fontSize=18;fontFamily=Helvetica;fontColor=default;align=center;" parent="FNDnNTJ_TwFZtQdyabzf-134" vertex="1">
          <mxGeometry x="1190" y="200" width="65" height="30" as="geometry" />
        </mxCell>
        <mxCell id="FNDnNTJ_TwFZtQdyabzf-133" value="" style="rounded=0;whiteSpace=wrap;html=1;fontSize=18;" parent="FNDnNTJ_TwFZtQdyabzf-134" vertex="1">
          <mxGeometry y="30" width="40" height="160" as="geometry" />
        </mxCell>
      </root>
    </mxGraphModel>
  </diagram>
  <diagram id="U42ZhFKkONLyXrKizbIx" name="element">
    <mxGraphModel dx="698" dy="503" grid="1" gridSize="10" guides="1" tooltips="1" connect="1" arrows="1" fold="1" page="1" pageScale="1" pageWidth="827" pageHeight="1169" math="0" shadow="0">
      <root>
        <mxCell id="0" />
        <mxCell id="1" parent="0" />
        <mxCell id="5slKp9ZI_7D-6_nZGz3x-18" value="" style="group" vertex="1" connectable="0" parent="1">
          <mxGeometry x="97" y="90" width="372" height="270" as="geometry" />
        </mxCell>
        <mxCell id="R-6uhp9BKaohUXGcrxEj-1" value="" style="group;fontSize=18;" vertex="1" connectable="0" parent="5slKp9ZI_7D-6_nZGz3x-18">
          <mxGeometry x="143" y="30" width="80" height="160" as="geometry" />
        </mxCell>
        <mxCell id="R-6uhp9BKaohUXGcrxEj-2" value="6" style="rounded=0;whiteSpace=wrap;html=1;fontSize=18;fillColor=#d5e8d4;strokeColor=#82b366;fontStyle=1" vertex="1" parent="R-6uhp9BKaohUXGcrxEj-1">
          <mxGeometry width="40" height="160" as="geometry" />
        </mxCell>
        <mxCell id="R-6uhp9BKaohUXGcrxEj-3" value="" style="group" vertex="1" connectable="0" parent="R-6uhp9BKaohUXGcrxEj-1">
          <mxGeometry x="40" width="40" height="40" as="geometry" />
        </mxCell>
        <mxCell id="R-6uhp9BKaohUXGcrxEj-4" value="" style="rounded=0;whiteSpace=wrap;html=1;" vertex="1" parent="R-6uhp9BKaohUXGcrxEj-3">
          <mxGeometry width="40" height="40" as="geometry" />
        </mxCell>
        <mxCell id="R-6uhp9BKaohUXGcrxEj-6" value="" style="ellipse;whiteSpace=wrap;html=1;aspect=fixed;fillColor=#000000;" vertex="1" parent="R-6uhp9BKaohUXGcrxEj-3">
          <mxGeometry x="15" y="15" width="10" height="10" as="geometry" />
        </mxCell>
        <mxCell id="R-6uhp9BKaohUXGcrxEj-7" value="" style="group" vertex="1" connectable="0" parent="R-6uhp9BKaohUXGcrxEj-1">
          <mxGeometry x="40" y="40" width="40" height="40" as="geometry" />
        </mxCell>
        <mxCell id="R-6uhp9BKaohUXGcrxEj-8" value="" style="rounded=0;whiteSpace=wrap;html=1;" vertex="1" parent="R-6uhp9BKaohUXGcrxEj-7">
          <mxGeometry width="40" height="40" as="geometry" />
        </mxCell>
        <mxCell id="R-6uhp9BKaohUXGcrxEj-9" value="" style="ellipse;whiteSpace=wrap;html=1;aspect=fixed;fillColor=#000000;" vertex="1" parent="R-6uhp9BKaohUXGcrxEj-7">
          <mxGeometry x="15" y="15" width="10" height="10" as="geometry" />
        </mxCell>
        <mxCell id="R-6uhp9BKaohUXGcrxEj-10" value="" style="group" vertex="1" connectable="0" parent="R-6uhp9BKaohUXGcrxEj-1">
          <mxGeometry x="40" y="80" width="40" height="40" as="geometry" />
        </mxCell>
        <mxCell id="R-6uhp9BKaohUXGcrxEj-11" value="" style="rounded=0;whiteSpace=wrap;html=1;" vertex="1" parent="R-6uhp9BKaohUXGcrxEj-10">
          <mxGeometry width="40" height="40" as="geometry" />
        </mxCell>
        <mxCell id="R-6uhp9BKaohUXGcrxEj-12" value="" style="ellipse;whiteSpace=wrap;html=1;aspect=fixed;fillColor=#000000;" vertex="1" parent="R-6uhp9BKaohUXGcrxEj-10">
          <mxGeometry x="15" y="15" width="10" height="10" as="geometry" />
        </mxCell>
        <mxCell id="R-6uhp9BKaohUXGcrxEj-13" value="" style="group" vertex="1" connectable="0" parent="R-6uhp9BKaohUXGcrxEj-1">
          <mxGeometry x="40" y="120" width="40" height="40" as="geometry" />
        </mxCell>
        <mxCell id="R-6uhp9BKaohUXGcrxEj-14" value="" style="rounded=0;whiteSpace=wrap;html=1;" vertex="1" parent="R-6uhp9BKaohUXGcrxEj-13">
          <mxGeometry width="40" height="40" as="geometry" />
        </mxCell>
        <mxCell id="R-6uhp9BKaohUXGcrxEj-15" value="" style="ellipse;whiteSpace=wrap;html=1;aspect=fixed;fillColor=#000000;" vertex="1" parent="R-6uhp9BKaohUXGcrxEj-13">
          <mxGeometry x="15" y="15" width="10" height="10" as="geometry" />
        </mxCell>
        <mxCell id="op7RKQrK9bRKW6NNIG7u-6" value="" style="group" vertex="1" connectable="0" parent="5slKp9ZI_7D-6_nZGz3x-18">
          <mxGeometry x="23" y="150" width="80" height="40" as="geometry" />
        </mxCell>
        <mxCell id="op7RKQrK9bRKW6NNIG7u-1" value="" style="group" vertex="1" connectable="0" parent="op7RKQrK9bRKW6NNIG7u-6">
          <mxGeometry x="40" width="40" height="40" as="geometry" />
        </mxCell>
        <mxCell id="op7RKQrK9bRKW6NNIG7u-2" value="" style="rounded=0;whiteSpace=wrap;html=1;" vertex="1" parent="op7RKQrK9bRKW6NNIG7u-1">
          <mxGeometry width="40" height="40" as="geometry" />
        </mxCell>
        <mxCell id="op7RKQrK9bRKW6NNIG7u-7" style="edgeStyle=orthogonalEdgeStyle;rounded=0;orthogonalLoop=1;jettySize=auto;html=1;exitX=1;exitY=0.5;exitDx=0;exitDy=0;strokeWidth=2;" edge="1" parent="op7RKQrK9bRKW6NNIG7u-1" source="op7RKQrK9bRKW6NNIG7u-3">
          <mxGeometry relative="1" as="geometry">
            <mxPoint x="80" y="20" as="targetPoint" />
          </mxGeometry>
        </mxCell>
        <mxCell id="op7RKQrK9bRKW6NNIG7u-3" value="" style="ellipse;whiteSpace=wrap;html=1;aspect=fixed;fillColor=#000000;" vertex="1" parent="op7RKQrK9bRKW6NNIG7u-1">
          <mxGeometry x="15" y="15" width="10" height="10" as="geometry" />
        </mxCell>
        <mxCell id="op7RKQrK9bRKW6NNIG7u-4" value="3" style="rounded=0;whiteSpace=wrap;html=1;fontSize=18;fontStyle=1;fillColor=#d5e8d4;strokeColor=#82b366;" vertex="1" parent="op7RKQrK9bRKW6NNIG7u-6">
          <mxGeometry width="40" height="40" as="geometry" />
        </mxCell>
        <mxCell id="op7RKQrK9bRKW6NNIG7u-11" style="rounded=0;orthogonalLoop=1;jettySize=auto;html=1;strokeWidth=5;fillColor=#d5e8d4;strokeColor=#82b366;exitX=0.814;exitY=-0.075;exitDx=0;exitDy=0;exitPerimeter=0;" edge="1" parent="5slKp9ZI_7D-6_nZGz3x-18" source="op7RKQrK9bRKW6NNIG7u-9">
          <mxGeometry relative="1" as="geometry">
            <mxPoint x="113" y="250" as="sourcePoint" />
            <mxPoint x="153" y="200" as="targetPoint" />
          </mxGeometry>
        </mxCell>
        <mxCell id="op7RKQrK9bRKW6NNIG7u-9" value="&lt;span&gt;&lt;font style=&quot;font-size: 23px;&quot;&gt;Key&lt;/font&gt;&lt;/span&gt;" style="text;html=1;align=center;verticalAlign=middle;resizable=0;points=[];autosize=1;strokeColor=none;fillColor=none;fontStyle=1;fontColor=#82B366;" vertex="1" parent="5slKp9ZI_7D-6_nZGz3x-18">
          <mxGeometry x="63" y="230" width="70" height="40" as="geometry" />
        </mxCell>
        <mxCell id="op7RKQrK9bRKW6NNIG7u-12" style="rounded=0;orthogonalLoop=1;jettySize=auto;html=1;strokeWidth=5;fillColor=#d5e8d4;strokeColor=#82b366;exitX=0.243;exitY=-0.125;exitDx=0;exitDy=0;exitPerimeter=0;" edge="1" parent="5slKp9ZI_7D-6_nZGz3x-18" source="op7RKQrK9bRKW6NNIG7u-9">
          <mxGeometry relative="1" as="geometry">
            <mxPoint x="127" y="250" as="sourcePoint" />
            <mxPoint x="53" y="200" as="targetPoint" />
          </mxGeometry>
        </mxCell>
        <mxCell id="op7RKQrK9bRKW6NNIG7u-16" value="Levels() = 4" style="text;html=1;strokeColor=none;fillColor=none;align=center;verticalAlign=middle;whiteSpace=wrap;rounded=0;fontSize=18;" vertex="1" parent="5slKp9ZI_7D-6_nZGz3x-18">
          <mxGeometry x="120" width="126" height="30" as="geometry" />
        </mxCell>
        <mxCell id="op7RKQrK9bRKW6NNIG7u-17" value="Levels() = 1" style="text;html=1;strokeColor=none;fillColor=none;align=center;verticalAlign=middle;whiteSpace=wrap;rounded=0;fontSize=18;" vertex="1" parent="5slKp9ZI_7D-6_nZGz3x-18">
          <mxGeometry y="120" width="126" height="30" as="geometry" />
        </mxCell>
        <mxCell id="5slKp9ZI_7D-6_nZGz3x-1" value="" style="group" vertex="1" connectable="0" parent="5slKp9ZI_7D-6_nZGz3x-18">
          <mxGeometry x="303" y="150" width="40" height="40" as="geometry" />
        </mxCell>
        <mxCell id="5slKp9ZI_7D-6_nZGz3x-2" value="" style="rounded=0;whiteSpace=wrap;html=1;" vertex="1" parent="5slKp9ZI_7D-6_nZGz3x-1">
          <mxGeometry width="40" height="40" as="geometry" />
        </mxCell>
        <mxCell id="5slKp9ZI_7D-6_nZGz3x-3" value="" style="ellipse;whiteSpace=wrap;html=1;aspect=fixed;fillColor=#000000;" vertex="1" parent="5slKp9ZI_7D-6_nZGz3x-1">
          <mxGeometry x="15" y="15" width="10" height="10" as="geometry" />
        </mxCell>
        <mxCell id="5slKp9ZI_7D-6_nZGz3x-4" value="9" style="rounded=0;whiteSpace=wrap;html=1;fontSize=18;fillColor=#d5e8d4;strokeColor=#82b366;" vertex="1" parent="5slKp9ZI_7D-6_nZGz3x-18">
          <mxGeometry x="263" y="110" width="40" height="80" as="geometry" />
        </mxCell>
        <mxCell id="5slKp9ZI_7D-6_nZGz3x-5" value="" style="group" vertex="1" connectable="0" parent="5slKp9ZI_7D-6_nZGz3x-18">
          <mxGeometry x="303" y="110" width="40" height="40" as="geometry" />
        </mxCell>
        <mxCell id="5slKp9ZI_7D-6_nZGz3x-6" value="" style="rounded=0;whiteSpace=wrap;html=1;" vertex="1" parent="5slKp9ZI_7D-6_nZGz3x-5">
          <mxGeometry width="40" height="40" as="geometry" />
        </mxCell>
        <mxCell id="5slKp9ZI_7D-6_nZGz3x-7" value="" style="ellipse;whiteSpace=wrap;html=1;aspect=fixed;fillColor=#000000;" vertex="1" parent="5slKp9ZI_7D-6_nZGz3x-5">
          <mxGeometry x="15" y="15" width="10" height="10" as="geometry" />
        </mxCell>
        <mxCell id="5slKp9ZI_7D-6_nZGz3x-12" style="edgeStyle=orthogonalEdgeStyle;rounded=0;orthogonalLoop=1;jettySize=auto;html=1;entryX=0;entryY=0.75;entryDx=0;entryDy=0;fontFamily=Helvetica;fontSize=12;fontColor=default;" edge="1" parent="5slKp9ZI_7D-6_nZGz3x-18" source="R-6uhp9BKaohUXGcrxEj-15" target="5slKp9ZI_7D-6_nZGz3x-4">
          <mxGeometry relative="1" as="geometry" />
        </mxCell>
        <mxCell id="5slKp9ZI_7D-6_nZGz3x-13" style="edgeStyle=orthogonalEdgeStyle;rounded=0;orthogonalLoop=1;jettySize=auto;html=1;entryX=-0.075;entryY=0.243;entryDx=0;entryDy=0;entryPerimeter=0;fontFamily=Helvetica;fontSize=12;fontColor=default;" edge="1" parent="5slKp9ZI_7D-6_nZGz3x-18" source="R-6uhp9BKaohUXGcrxEj-12" target="5slKp9ZI_7D-6_nZGz3x-4">
          <mxGeometry relative="1" as="geometry" />
        </mxCell>
        <mxCell id="5slKp9ZI_7D-6_nZGz3x-16" value="Levels() = 2" style="text;html=1;strokeColor=none;fillColor=none;align=center;verticalAlign=middle;whiteSpace=wrap;rounded=0;fontSize=18;" vertex="1" parent="5slKp9ZI_7D-6_nZGz3x-18">
          <mxGeometry x="246" y="80" width="126" height="30" as="geometry" />
        </mxCell>
        <mxCell id="5slKp9ZI_7D-6_nZGz3x-17" style="rounded=0;orthogonalLoop=1;jettySize=auto;html=1;strokeWidth=5;fillColor=#d5e8d4;strokeColor=#82b366;exitX=0.814;exitY=-0.075;exitDx=0;exitDy=0;exitPerimeter=0;entryX=-0.131;entryY=1.036;entryDx=0;entryDy=0;entryPerimeter=0;" edge="1" parent="5slKp9ZI_7D-6_nZGz3x-18" target="5slKp9ZI_7D-6_nZGz3x-4">
          <mxGeometry relative="1" as="geometry">
            <mxPoint x="130" y="237" as="sourcePoint" />
            <mxPoint x="163" y="210" as="targetPoint" />
          </mxGeometry>
        </mxCell>
      </root>
    </mxGraphModel>
  </diagram>
</mxfile>
